<?xml version="1.0"?>
<svg xmlns="http://www.w3.org/2000/svg" height="512px" viewBox="0 -105 480 480" width="512px"><g><path d="m0 123.242188h16v16h-16zm0 0" data-original="#000000" class="active-path" data-old_color="#000000" fill="#FFFFFF"/><path d="m341.953125 101.742188c-4.746094-7.117188-12.921875-11.171876-21.460937-10.636719-8.539063.53125-16.148438 5.566406-19.976563 13.21875l-8.898437 17.785156c-1.199219 2.394531-3.515626 4.035156-6.175782 4.363281s-5.308594-.699218-7.050781-2.734375l-19.742187-23.03125c-4.664063-5.410156-11.484376-8.476562-18.625-8.378906-7.148438.105469-13.875 3.410156-18.335938 9l-7.039062 8.789063c-1.558594 1.910156-3.898438 3.015624-6.367188 3-2.476562-.03125-4.796875-1.214844-6.273438-3.199219l-20.078124-26.761719c-4.988282-6.65625-13.070313-10.253906-21.355469-9.507812-8.28125.746093-15.589844 5.730468-19.308594 13.171874l-18.210937 36.421876h-91.054688v16h100.945312l22.632813-45.265626c1.238281-2.480468 3.675781-4.140624 6.4375-4.390624s5.453125.949218 7.117187 3.167968l20.078126 26.765625c4.4375 5.957031 11.394531 9.503907 18.820312 9.597657h.382812c7.292969.023437 14.191407-3.296876 18.726563-9.003907l7.039063-8.789062c1.484374-1.863281 3.726562-2.964844 6.109374-3 2.398438-.113281 4.703126.925781 6.210938 2.792969l19.742188 23.035156c4.550781 5.320312 11.203124 8.382812 18.203124 8.382812.988282-.003906 1.972657-.0625 2.953126-.183594 7.984374-.972656 14.945312-5.890624 18.53125-13.085937l8.898437-17.785156c1.277344-2.550781 3.8125-4.230469 6.660156-4.40625 2.84375-.179688 5.570313 1.171875 7.152344 3.546875l19.078125 28.621094h100.28125v-16h-91.71875zm0 0" data-original="#000000" class="active-path" data-old_color="#000000" fill="#FFFFFF"/><path d="m464 123.242188h16v16h-16zm0 0" data-original="#000000" class="active-path" data-old_color="#000000" fill="#FFFFFF"/><path d="m112.515625 103.804688c-12.835937-27.003907-4.367187-59.324219 20.0625-76.566407 24.425781-17.238281 57.71875-14.390625 78.859375 6.75l28.5625 28.570313 28.5625-28.570313c21.140625-21.140625 54.433594-23.988281 78.859375-6.75 24.429687 17.238281 32.898437 49.5625 20.0625 76.566407l14.453125 6.875c16.175781-34.039063 5.503906-74.777344-25.285156-96.507813-30.789063-21.730469-72.75-18.140625-99.402344 8.503906l-17.25 17.25-17.25-17.25c-26.652344-26.644531-68.613281-30.234375-99.402344-8.503906-30.789062 21.730469-41.464844 62.46875-25.285156 96.507813zm0 0" data-original="#000000" class="active-path" data-old_color="#000000" fill="#FFFFFF"/><path d="m240 247.378906-90.097656-98.671875-11.804688 10.78125 101.902344 111.617188 101.902344-111.617188-11.804688-10.78125zm0 0" data-original="#000000" class="active-path" data-old_color="#000000" fill="#FFFFFF"/></g> </svg>
