<?xml version="1.0"?>
<svg xmlns="http://www.w3.org/2000/svg" id="Layer_3" enable-background="new 0 0 64 64" height="512px" viewBox="0 0 64 64" width="512px" class="hovered-paths"><g><path d="m16 5c-6.065 0-11 4.935-11 11h2c0-4.963 4.038-9 9-9z" data-original="#000000" class="hovered-path active-path" data-old_color="#000000" fill="#FFFFFF"/><path d="m48 1c-6.065 0-11 4.935-11 11 0 2.186 1.008 4.139 2.583 5.424-2.992.748-5.649 2.478-7.582 4.945-1.89-2.404-4.545-4.167-7.599-4.934 1.583-1.284 2.598-3.243 2.598-5.435 0-6.065-4.935-11-11-11-8.271 0-15 6.729-15 15v12c0 8.271 6.729 15 15 15 6.065 0 11-4.935 11-11 0-1.048-.238-2.04-.653-2.933 1.624 1.465 2.653 3.578 2.653 5.933v28h2v-28c0-5.01-3.708-9.16-8.523-9.878.342-.965.523-1.988.523-3.011v-.223c0-.941-.163-1.881-.453-2.777 5.887.763 10.453 5.797 10.453 11.889v32h2v-28c0-2.355 1.029-4.468 2.653-5.933-.415.893-.653 1.885-.653 2.933 0 6.065 4.935 11 11 11 8.271 0 15-6.729 15-15v-12c0-8.271-6.729-15-15-15zm-27 20.889v.223c0 1-.228 1.997-.643 2.907-.119-.007-.237-.019-.357-.019h-1.486c.314-.93.486-1.909.486-2.889v-.223c0-.98-.172-1.959-.486-2.889h1.486c.12 0 .238-.012.357-.018.415.911.643 1.908.643 2.908zm-5 19.111c-7.168 0-13-5.832-13-13v-12c0-7.168 5.832-13 13-13 4.962 0 9 4.037 9 9 0 2.757-2.243 5-5 5h-2c-1.654 0-3-1.346-3-3v-3h-2v3c0 2.124 1.337 3.931 3.209 4.654l.052.104c.484.967.739 2.05.739 3.131v.223c0 1.081-.255 2.164-.739 3.131l-.052.104c-1.872.722-3.209 2.529-3.209 4.653v3h2v-3c0-1.654 1.346-3 3-3h2c2.757 0 5 2.243 5 5 0 4.963-4.038 9-9 9zm29.486-16h-1.486c-.12 0-.238.012-.357.018-.415-.91-.643-1.907-.643-2.907v-.223c0-1 .228-1.997.643-2.907.119.007.237.019.357.019h1.486c-.314.93-.486 1.909-.486 2.889v.223c0 .979.172 1.958.486 2.888zm-10.615 4.198c-.236-1.822-.817-3.534-1.686-5.068 1.953-2.789 4.937-4.604 8.272-5.031-.293.901-.457 1.844-.457 2.79v.223c0 1.022.181 2.045.523 3.01-2.736.408-5.109 1.921-6.652 4.076zm26.129-1.198c0 7.168-5.832 13-13 13-4.962 0-9-4.037-9-9 0-2.757 2.243-5 5-5h2c1.654 0 3 1.346 3 3v3h2v-3c0-2.124-1.337-3.931-3.209-4.654l-.052-.104c-.484-.967-.739-2.05-.739-3.131v-.223c0-1.081.255-2.164.739-3.131l.052-.104c1.872-.722 3.209-2.529 3.209-4.653v-3h-2v3c0 1.654-1.346 3-3 3h-2c-2.757 0-5-2.243-5-5 0-4.963 4.038-9 9-9 7.168 0 13 5.832 13 13z" data-original="#000000" class="hovered-path active-path" data-old_color="#000000" fill="#FFFFFF"/><path d="m48 37v2c6.065 0 11-4.935 11-11h-2c0 4.963-4.038 9-9 9z" data-original="#000000" class="hovered-path active-path" data-old_color="#000000" fill="#FFFFFF"/></g> </svg>
