<?xml version="1.0"?>
<svg xmlns="http://www.w3.org/2000/svg" id="Capa_1" enable-background="new 0 0 512.002 512.002" height="512px" viewBox="0 0 512.002 512.002" width="512px"><g><g><g><path d="m423.636 98.32c18.859-13.182 37.814-29.79 44.836-46.813 4.918-11.921 2.716-20.935.004-26.398-17.343-34.927-102.859-28.348-177.106-10.545-.428.103-.842.231-1.242.384-32.907-19.518-59.322-16.562-76.821-9.527-3.506 1.409-6.817 3.04-9.931 4.821-.18-.048-.363-.091-.548-.13-38.479-7.959-72.999-11.323-99.818-9.725-30.835 1.838-50.136 10.155-57.37 24.722-2.712 5.463-4.914 14.477.004 26.398 6.364 15.429 22.532 30.517 39.546 43.022-1.865 3.63-3.482 7.419-4.829 11.346-.428.243-.844.521-1.243.834-39.069 30.631-39.77 52.162-33.478 64.831 7.548 15.201 27.614 21.805 49.908 24.091-15.628 4.75-27.033 19.295-27.033 36.453 0 19.948 15.413 36.363 34.958 37.962 4.213 56.371 47.675 101.982 103.075 109.521v19.273h-103.35c-34.533 0-62.628 28.093-62.628 62.623v40.538c0 5.522 4.477 10 10 10h151.078c5.523 0 10-4.478 10-10s-4.477-10-10-10h-141.078v-30.538c0-23.502 19.123-42.623 42.628-42.623h287.483c23.505 0 42.628 19.121 42.628 42.623v30.538h-141.078c-5.522 0-10 4.478-10 10s4.478 10 10 10h151.078c5.523 0 10-4.478 10-10v-40.538c0-34.53-28.095-62.623-62.628-62.623h-103.35v-18.802c57.457-5.872 103.008-52.575 107.074-110.535 17.607-3.349 30.959-18.855 30.959-37.42 0-16.111-10.054-29.917-24.218-35.475 28.596-.442 57.844-5.97 67.328-25.068 10.081-20.297-5.787-45.951-44.838-73.22zm-37.733 78.068c-1.493-.064-3.014-.142-4.564-.231-11.222-.651-23.153-1.918-35.615-3.762-9.128-4.523-19.669-10.571-31.816-18.582 30.249-11.526 58.018-24.408 81.823-37.974 5.072 20.372 1.456 42.321-9.828 60.549zm-220.912-33.642c7.842 4.966 21.064 11.952 43.887 22.049-16.606 3.73-32.679 6.632-47.879 8.633.511-3.692.83-7.378 1.134-10.892.584-6.757 1.181-13.657 2.858-19.79zm238.52-122.667c37.74 1.002 45.555 10.912 47.051 13.925.473.951 1.909 3.845-.578 9.877-4.681 11.346-19.922 26.334-44.303 42.409-8.201-15.494-20.086-28.727-34.961-38.801-15.523-10.511-33.152-16.817-51.621-18.549 31.87-6.362 61.243-9.477 84.412-8.861zm-175.913 1.647c21.749-5.631 45.889 2.581 71.747 24.406 1.876 1.583 4.257 2.436 6.722 2.354 35.333-.92 67.138 18.089 82.552 48.345-24.986 14.521-56.875 29.46-94.688 43.052-5.632-4.124-11.547-8.61-17.757-13.487-1.397-1.098-2.493-1.957-3.248-2.532-7.312-5.572-12.647-1.49-14.109-.106-2.989 2.832-3.857 7.182-2.435 10.899l3.041 8.423c1.208 3.344.8 6.16-.073 8.297-.764.234-1.529.466-2.292.697-8.067-2.437-16.18-5.039-24.304-7.798-50.179-17.044-90.775-36.623-119.713-55.006 9.345-10.139 21.831-17.243 35.877-19.913 7.121-1.354 14.37-1.516 21.545-.483 2.691.39 5.422-.336 7.566-2.005 1.735-1.351 2.966-3.225 3.523-5.322 2.261-5.477 18.513-32.691 46.046-39.821zm-163.466 22.155c-2.488-6.032-1.051-8.926-.579-9.877 3.599-7.246 18.793-12.35 40.646-13.651 21.323-1.27 48.146.873 78.297 6.215-2.559 2.614-4.795 5.16-6.702 7.499-3.487 4.275-7.184 9.546-9.886 14.271-6.929-.392-13.872.068-20.725 1.371-19.335 3.676-36.406 13.786-48.795 28.186-17.385-12.856-28.402-24.67-32.256-34.014zm43.123 65.391c12.315 7.536 25.889 14.899 40.479 21.98-3.808 9.695-4.708 20.091-5.527 29.563-.542 6.267-1.086 11.091-1.865 14.818-2.556.205-5.079.379-7.567.524-7.324.425-13.997.561-20.055.455l-13.427-29.109c-5.142-13.837-5.259-18.767-.912-32.388l.449-1.4c.857-2.684 1.877-5.287 3.049-7.798 1.822 1.159 3.618 2.278 5.376 3.355zm-43.702 53.374c-2.359-4.75.188-13.682 12.147-26.165.699 5.511 2.352 11.313 4.988 18.369.087.233.183.463.287.688l8.855 19.196c-15.742-2.583-23.952-7.406-26.277-12.088zm162.994 236.195v-18.179h40.784v18.179zm160.725-148.667h-2.57c-5.522 0-10 4.477-10 10v.877c0 54.926-44.69 99.611-99.622 99.611h-52.32c-54.932 0-99.622-44.686-99.622-99.611v-.877c0-5.523-4.477-10-10-10h-6.53c-9.977 0-18.093-8.115-18.093-18.09 0-9.976 8.116-18.091 18.093-18.091h6.53c3.245 0 6.129-1.546 7.956-3.942.997-.206 2.123-.425 3.188-.631 2.709-.525 6.082-1.181 10.217-2.113 9.603-2.167 15.696-6.896 19.648-12.906 26.409-2.919 55.595-8.6 85.79-16.664 8.153 2.286 16.645 1.235 23.878-2.851 26.34 7.453 52.075 13.15 76.053 16.844 12.896 6.145 24.521 10.122 34.834 11.911v.352c0 5.523 4.478 10 10 10h2.57c9.977 0 18.093 8.115 18.093 18.091-.001 9.975-8.117 18.09-18.093 18.09zm63.291-87.528c-3.002 6.044-15.807 12.322-41.961 13.715 8.52-18.315 11.366-38.79 7.978-58.495 28.193 20.617 37.8 37.09 33.983 44.78z" data-original="#000000" class="active-path" data-old_color="#000000" fill="#FFFFFF"/><path d="m327.334 222.36c-3.906-3.904-10.236-3.904-14.143 0l-5.206 5.206-5.206-5.206c-3.906-3.904-10.236-3.904-14.143 0-3.905 3.905-3.905 10.237 0 14.143l5.206 5.205-5.206 5.206c-3.905 3.905-3.905 10.237 0 14.143 1.953 1.952 4.512 2.929 7.071 2.929 2.56 0 5.118-.977 7.071-2.929l5.206-5.206 5.206 5.206c1.953 1.952 4.512 2.929 7.071 2.929s5.118-.977 7.071-2.929c3.905-3.905 3.905-10.237 0-14.143l-5.206-5.206 5.206-5.205c3.907-3.905 3.907-10.237.002-14.143z" data-original="#000000" class="active-path" data-old_color="#000000" fill="#FFFFFF"/><path d="m205.608 222.36c-3.905-3.904-10.237-3.904-14.143 0l-5.206 5.206-5.206-5.206c-3.905-3.904-10.237-3.904-14.143 0-3.905 3.905-3.905 10.237 0 14.143l5.206 5.205-5.206 5.206c-3.905 3.905-3.905 10.237 0 14.143 1.953 1.952 4.512 2.929 7.071 2.929s5.119-.977 7.071-2.929l5.206-5.206 5.206 5.206c1.953 1.952 4.512 2.929 7.071 2.929s5.119-.977 7.071-2.929c3.905-3.905 3.905-10.237 0-14.143l-5.206-5.206 5.206-5.205c3.907-3.905 3.907-10.237.002-14.143z" data-original="#000000" class="active-path" data-old_color="#000000" fill="#FFFFFF"/><g><path d="m269.165 335.019c-2.56 0-5.118-.977-7.071-2.929-8.52-8.52-22.382-8.52-30.901 0-3.905 3.904-10.237 3.904-14.143 0-3.905-3.905-3.905-10.237 0-14.143 16.318-16.316 42.868-16.316 59.187 0 3.905 3.905 3.905 10.237 0 14.143-1.954 1.952-4.512 2.929-7.072 2.929z" data-original="#000000" class="active-path" data-old_color="#000000" fill="#FFFFFF"/></g><g><path d="m247.127 512.002c-4.235 0-8.084-2.763-9.462-6.763-1.354-3.93-.054-8.423 3.193-11.022 3.193-2.555 7.719-2.9 11.264-.868 3.639 2.086 5.622 6.409 4.824 10.529-.901 4.652-5.072 8.124-9.819 8.124z" data-original="#000000" class="active-path" data-old_color="#000000" fill="#FFFFFF"/></g></g></g></g> </svg>
