<svg enable-background="new 0 0 57.821 57.001" height="512" viewBox="0 0 57.821 57.001" width="512" xmlns="http://www.w3.org/2000/svg"><path d="m25.821 41.364v13.636c0 1.105.896 2 2 2s2-.895 2-2v-16c-1.292.82-2.625 1.612-4 2.364z" fill="#556080"/><path d="m45.821 39h-2c-3.124 0-5.688-2.388-5.972-5.437-1.103.892-2.263 1.79-3.48 2.681 1.349 3.928 5.067 6.756 9.452 6.756h2c1.104 0 2-.895 2-2s-.895-2-2-2z" fill="#f5b05c"/><path d="m31.821 10c-.552 0-1-.448-1-1 0-2.757-2.243-5-5-5-.552 0-1-.448-1-1s.448-1 1-1c3.86 0 7 3.14 7 7 0 .552-.447 1-1 1z" fill="#366db6"/><path d="m34.821 10c-.552 0-1-.448-1-1s.448-1 1-1c2.757 0 5-2.243 5-5 0-.552.448-1 1-1s1 .448 1 1c0 3.86-3.14 7-7 7z" fill="#366db6"/><path d="m32.913 13.285c.632.142 1.269.256 1.908.356v-11.641c0-1.105-.896-2-2-2s-2 .895-2 2v10.874c.757.134 1.474.272 2.092.411z" fill="#556080"/><path d="m6.821 10h1c2.049 0 3.844 1.039 4.926 2.607 1.353-.368 2.761-.592 4.182-.714-1.568-3.472-5.05-5.893-9.108-5.893h-1c-1.104 0-2 .895-2 2s.896 2 2 2z" fill="#f5b05c"/><path d="" style="fill:none;stroke:#000;stroke-width:2;stroke-linecap:round;stroke-linejoin:round;stroke-miterlimit:10"/><path d="" style="fill:none;stroke:#000;stroke-width:2;stroke-linecap:round;stroke-linejoin:round;stroke-miterlimit:10"/><path d="m1.737 23.812c.126-.412.259-.823.401-1.233.762-2.202 1.728-4.359 3.14-6.212 3.957-5.195 10.956-5.849 17.024-5.531 2.949.154 7.729.802 10.611 1.45 2.813.632 5.701.846 8.585.659 3.885-.252 8.853-1.357 11.865-2.997 2.487-1.354 5.343 1.188 4.197 3.778-.775 1.751-2.451 4.09-5.594 7.211-1.006.999-1.993 2.007-2.938 3.064-3.203 3.582-12.701 13.404-24.928 19.627-2.334 1.188-4.81 2.097-7.386 2.572-2.491.46-6.588 1.957-8.893 6.8-.427.897-.597 4.057-4 4-.859-.014-1.79-1.476-1.951-3.61-.222-2.938-1.123-5.749-1.416-8.686-.706-7.068-.8-14.072 1.283-20.892z" fill="#b24648"/><g fill="#892f34"><path d="m5.821 48c-.085 0-.17-.011-.255-.033-.37-.098-.653-.398-.726-.774-.017-.087-.05-.232-.094-.426-.457-2.041-1.848-8.251-.906-12.962.108-.542.636-.89 1.177-.784.542.108.893.635.784 1.177-.519 2.593-.315 6.206.603 10.752 3.515-3.284 7.523-4.336 9.221-4.649 1.999-.369 4.119-1.365 5.743-2.19.492-.252 1.094-.055 1.345.438.25.492.054 1.094-.438 1.345-1.744.888-4.034 1.959-6.287 2.375-1.71.315-6.05 1.472-9.408 5.385-.192.222-.471.346-.759.346z"/><path d="m5.821 27c-.108 0-.219-.018-.327-.056-.522-.18-.799-.75-.618-1.272.743-2.147 2.592-5.579 3.584-6.882 1.997-2.621 5.501-3.79 11.361-3.79.552 0 1 .448 1 1s-.448 1-1 1c-5.175 0-8.188.926-9.77 3.002-.886 1.164-2.611 4.375-3.285 6.325-.143.414-.53.673-.945.673z"/><path d="m33.953 37.543c1.698-1.229 3.295-2.473 4.775-3.698 3.274-7.427-1.053-13.373-1.107-13.445-.331-.441-.955-.531-1.397-.201s-.533.956-.205 1.398c.223.302 5.39 7.486-1.946 15.738-.054.063-.083.137-.12.208z"/></g></svg>