<svg id="Capa_1" enable-background="new 0 0 512 512" height="512" viewBox="0 0 512 512" width="512" xmlns="http://www.w3.org/2000/svg"><g><g><g><g><g><g><g><g><g><circle cx="256" cy="256" fill="#606aea" r="256"/></g></g></g></g></g></g></g></g><path d="m512 256c0-16.59-1.578-32.812-4.593-48.524l-124.956-124.956-44.537 71.789-55.032-55.099-50.373 49.704 67.19 66.994-4.108 6.622-135.656-135.656.598 80.612 104.423 104.424-48.744 78.57-11.246 124.266 36.868 36.868c4.69.256 9.413.386 14.166.386 141.385 0 256-114.615 256-256z" fill="#4855b7"/><g><circle cx="256" cy="122.342" fill="#ffbeaa" r="35.458"/></g><g><path d="m268.397 89.122c-4.047-1.51-8.195-2.231-12.276-2.245v70.926c14.33-.051 27.794-8.844 33.1-23.064 6.846-18.347-2.477-38.771-20.824-45.617z" fill="#e09380"/></g><g fill="#ffcdbe"><path d="m198.494 459.23c-.312 11.317 8.61 20.745 19.927 21.057 11.346.324 20.746-8.61 21.057-19.927l3.034-110.046h-41.016z"/><path d="m272.521 460.36c.307 11.125 9.421 19.936 20.481 19.935.191 0 .384-.003.576-.008 11.317-.312 20.239-9.74 19.927-21.057l-3.003-108.916h-41.016z"/><path d="m374.466 78.344c-10.963-2.922-22.333 4.201-25.258 15.163-8.229 30.831-30.919 54.831-59.631 65.487h-67.153c-28.876-10.717-51.661-34.931-59.771-66.017-2.9-11.115-14.383-17.709-25.49-14.531-10.779 3.085-16.925 14.524-14.056 25.363 11.113 41.98 41.014 75.11 79.249 91.319 4.498 9.568 7.131 19.339 8.505 28.779h90.278c1.374-9.439 4.007-19.211 8.505-28.779 38.381-16.272 68.365-49.593 79.376-91.802 2.848-10.919-3.663-22.079-14.554-24.982z"/></g><path d="m272.521 460.36c.307 11.125 9.421 19.936 20.481 19.935.191 0 .384-.003.576-.008 11.317-.312 20.239-9.74 19.927-21.057l-3.003-108.916h-41.016z" fill="#faa68e"/><path d="m374.466 78.344c-10.963-2.922-22.333 4.201-25.258 15.163-8.229 30.831-30.919 54.831-59.631 65.487h-33.457v64.913h45.018c1.374-9.439 4.007-19.211 8.505-28.779 38.381-16.272 68.365-49.593 79.376-91.802 2.849-10.919-3.662-22.079-14.553-24.982z" fill="#faa68e"/><path d="m268.649 319.921.904 32.783h41.016l-1.698-61.592c-.216-7.851-2.147-15.408-5.579-22.245h-94.583c-3.432 6.837-5.362 14.393-5.579 22.245l-1.698 61.592h41.016l.904-32.783c.189-6.85 5.796-12.305 12.649-12.305 6.852 0 12.459 5.455 12.648 12.305z" fill="#fff"/><path d="m308.87 291.111c-.216-7.851-2.147-15.408-5.579-22.245h-47.171v38.755c6.797.064 12.341 5.49 12.529 12.299l.904 32.782h41.016z" fill="#e9edf5"/><g><path d="m301.805 264.388c-.001-.007-.002-.015-.004-.022-1.911-11.652-2.947-26.604-.372-42.379-10.364-9.637-17.195-26.123-17.195-44.841 0-6.37.791-12.481 2.243-18.152h-10.927c-3.91 6.736-11.201 11.266-19.55 11.266s-15.64-4.53-19.55-11.266h-10.929c1.452 5.671 2.243 11.782 2.243 18.152 0 18.719-6.831 35.204-17.195 44.841 2.575 15.774 1.539 30.726-.372 42.378-.001.008-.003.015-.004.023-.228 1.396-.621 2.763-1.267 4.021-.077.15-.143.306-.219.457h94.583c-.076-.151-.142-.307-.219-.457-.645-1.257-1.037-2.625-1.266-4.021z" fill="#2fddd0"/></g><g><path d="m303.073 268.41c-.647-1.258-1.039-2.625-1.267-4.021-.001-.007-.002-.015-.004-.022-1.911-11.652-2.947-26.604-.372-42.379-10.364-9.637-17.195-26.123-17.195-44.841 0-6.37.791-12.481 2.243-18.152h-10.928c-3.891 6.703-11.131 11.218-19.429 11.262v98.61h47.171c-.076-.152-.142-.307-.219-.457z" fill="#11bfae"/></g></g></svg>